<?xml version="1.0" encoding="UTF-8"?>
<svg id="Layer_2" data-name="Layer 2" xmlns="http://www.w3.org/2000/svg" xmlns:xlink="http://www.w3.org/1999/xlink" viewBox="0 0 216.29 249.75">
  <defs>
    <style>
      .cls-1 {
        fill: url(#GradientFill_1-2);
      }

      .cls-1, .cls-2, .cls-3, .cls-4 {
        fill-rule: evenodd;
      }

      .cls-2 {
        fill: url(#GradientFill_1-3);
      }

      .cls-3 {
        fill: url(#GradientFill_1);
      }

      .cls-4 {
        fill: url(#GradientFill_1-4);
      }

      .cls-5 {
        fill: #fff;
        stroke: #fff;
        stroke-miterlimit: 10;
        stroke-width: .1px;
      }
    </style>
    <linearGradient id="GradientFill_1" data-name="GradientFill 1" x1="108.14" y1="51.72" x2="108.15" y2="133.96" gradientUnits="userSpaceOnUse">
      <stop offset="0" stop-color="#006e63"/>
      <stop offset=".25" stop-color="#00564e"/>
      <stop offset=".78" stop-color="#001b19"/>
      <stop offset="1" stop-color="#000102"/>
    </linearGradient>
    <linearGradient id="GradientFill_1-2" data-name="GradientFill 1" x1="244.13" y1="124.88" x2="-33.16" y2="124.87" xlink:href="#GradientFill_1"/>
    <linearGradient id="GradientFill_1-3" data-name="GradientFill 1" x1="167.49" y1="139.41" x2="101.3" y2="139.41" xlink:href="#GradientFill_1"/>
    <linearGradient id="GradientFill_1-4" data-name="GradientFill 1" x1="48.87" y1="139.33" x2="115.06" y2="139.33" xlink:href="#GradientFill_1"/>
  </defs>
  <g id="Layer_1-2" data-name="Layer 1">
    <g>
      <polygon class="cls-3" points="108.46 120.4 160.09 89.63 108.63 59.92 56.2 90.19 108.46 120.4"/>
      <path class="cls-1" d="m36.92,166v-82.24l35.61-20.56,35.61-20.56,35.61,20.56,35.61,20.56v82.24l-35.61,20.56-35.61,20.56-35.61-20.56-35.61-20.56h0ZM216.29,62.44h0s0,0,0,0l-54.07-31.22L108.15,0l-54.07,31.22L0,62.44v124.88l54.07,31.22,54.07,31.22,54.07-31.22,54.07-31.22V62.44Z"/>
      <g>
        <polygon class="cls-2" points="160.85 93.78 109.22 124.55 109.22 185.03 160.85 155.22 160.85 93.78"/>
        <polygon class="cls-4" points="55.44 93.78 107.07 124.55 107.07 185.03 55.44 155.22 55.44 93.78"/>
      </g>
      <line class="cls-5" x1="119.87" y1="48.8" x2="150.19" y2="18.73"/>
      <line class="cls-5" x1="66.1" y1="227.51" x2="96.42" y2="197.44"/>
    </g>
  </g>
</svg>