<svg width="88" height="88" viewBox="0 0 88 88" fill="none" xmlns="http://www.w3.org/2000/svg">
<path d="M8.25 22H16.5H77C77.0687 22 77.1547 22 77.2234 22C79.1484 22.0344 80.9359 22.6187 82.5 23.5297V23.4781C85.7828 25.3859 88 28.9266 88 33V71.5C88 77.5672 83.0672 82.5 77 82.5H11C4.93281 82.5 0 77.5672 0 71.5V41.25V33V13.75C0 18.3047 3.69531 22 8.25 22ZM71.5 57.75C72.9587 57.75 74.3576 57.1705 75.3891 56.1391C76.4205 55.1076 77 53.7087 77 52.25C77 50.7913 76.4205 49.3924 75.3891 48.3609C74.3576 47.3295 72.9587 46.75 71.5 46.75C70.0413 46.75 68.6424 47.3295 67.6109 48.3609C66.5795 49.3924 66 50.7913 66 52.25C66 53.7087 66.5795 55.1076 67.6109 56.1391C68.6424 57.1705 70.0413 57.75 71.5 57.75Z" fill="#61F0FE"/>
<path opacity="0.4" d="M0 13.75C0 9.19531 3.69531 5.5 8.25 5.5H74.25C78.8047 5.5 82.5 9.19531 82.5 13.75V16.5V22V23.4781C80.8844 22.55 79.0109 22 77 22H66H8.25C3.69531 22 0 18.3047 0 13.75Z" fill="#61F0FE"/>
</svg>
