<svg width="96" height="96" viewBox="0 0 96 96" fill="none" xmlns="http://www.w3.org/2000/svg">
<path d="M9 24H18H84C84.075 24 84.1687 24 84.2437 24C86.3437 24.0375 88.2937 24.675 90 25.6687V25.6125C93.5813 27.6938 96 31.5562 96 36V78C96 84.6187 90.6187 90 84 90H12C5.38125 90 0 84.6187 0 78V45V36V15C0 19.9688 4.03125 24 9 24ZM78 63C79.5913 63 81.1174 62.3679 82.2426 61.2426C83.3679 60.1174 84 58.5913 84 57C84 55.4087 83.3679 53.8826 82.2426 52.7574C81.1174 51.6321 79.5913 51 78 51C76.4087 51 74.8826 51.6321 73.7574 52.7574C72.6321 53.8826 72 55.4087 72 57C72 58.5913 72.6321 60.1174 73.7574 61.2426C74.8826 62.3679 76.4087 63 78 63Z" fill="#1ADEF5"/>
<path opacity="0.4" d="M0 15C0 10.0312 4.03125 6 9 6H81C85.9688 6 90 10.0312 90 15V18V24V25.6125C88.2375 24.6 86.1937 24 84 24H72H9C4.03125 24 0 19.9688 0 15Z" fill="#1ADEF5"/>
</svg>
