<svg width="90" height="24" viewBox="0 0 90 24" fill="none" xmlns="http://www.w3.org/2000/svg">
<path fill-rule="evenodd" clip-rule="evenodd" d="M0 0H6.01795V18.0012H0V0ZM8.02734 0H14.0035V24H8.02734V0Z" fill="white"/>
<path d="M77.1562 12.3896C77.1562 10.3224 77.7835 8.64457 79.0082 7.38622C80.2628 6.09792 81.8758 5.46875 83.8472 5.46875C85.7589 5.46875 87.2226 6.038 88.2382 7.1765C89.2836 8.28504 89.8512 9.63327 90.0005 11.1912L87.82 11.341C87.6109 9.06401 86.207 7.47611 83.8173 7.47611C81.3978 7.47611 79.6952 9.39358 79.6952 12.3896C79.6952 15.3857 81.3978 17.3032 83.8173 17.3032C86.207 17.3032 87.6109 15.6254 87.82 13.3484L90.0005 13.5581C89.8512 15.146 89.2836 16.4942 88.2382 17.6028C87.2226 18.7113 85.7589 19.2806 83.8472 19.2806C81.8758 19.2806 80.2628 18.6514 79.0082 17.393C77.7835 16.1347 77.1562 14.4569 77.1562 12.3896Z" fill="white"/>
<path d="M72.0703 2.86219V0.0458984H74.6392V2.86219H72.0703ZM72.1301 5.82828H74.6093V18.921H72.1301V5.82828Z" fill="white"/>
<path d="M58.8257 16.1946L58.2881 18.921H56.4062V0.0458984H58.8855V8.58465C59.453 6.99674 61.1556 5.46876 63.5751 5.46876C65.4868 5.46876 66.9505 6.15785 67.9959 7.50607C69.0414 8.8543 69.5492 10.4722 69.5492 12.3896C69.5492 14.3071 69.0414 15.925 67.9959 17.2732C66.9505 18.6214 65.4868 19.2806 63.5453 19.2806C61.1556 19.2806 59.4232 17.8425 58.8257 16.1946ZM58.8257 12.0002V12.7492C58.8257 15.6254 60.6478 17.3032 63.0076 17.3032C65.5466 17.3032 66.9804 15.3857 66.9804 12.3896C66.9804 9.39359 65.5466 7.47611 63.0076 7.47611C60.6478 7.47611 58.8257 9.1539 58.8257 12.0002Z" fill="white"/>
<path d="M50.5172 13.3482V5.82812H52.9964V18.9209H50.5172V16.6139C49.8899 18.1719 48.1873 19.2804 46.2457 19.2804C44.5431 19.2804 43.3483 18.7711 42.6314 17.7824C41.9444 16.7637 41.5859 15.5054 41.5859 13.9774V5.82812H44.0652V13.7377C44.0652 15.8949 45.0509 17.333 47.0821 17.333C49.0237 17.333 50.5172 15.7451 50.5172 13.3482Z" fill="white"/>
<path d="M35.8668 23.9544V16.1946C35.2694 17.7825 33.5967 19.2806 31.1772 19.2806C29.2356 19.2806 27.772 18.6214 26.7265 17.2732C25.7109 15.925 25.2031 14.3071 25.2031 12.3896C25.2031 10.4722 25.7109 8.85429 26.7265 7.50607C27.772 6.15784 29.2356 5.46875 31.1772 5.46875C33.5967 5.46875 35.2694 6.99674 35.8668 8.58465V5.82828H38.3461V23.9544H35.8668ZM35.8967 12.7492V12.0001C35.8967 9.1539 34.1045 7.47611 31.7447 7.47611C29.2058 7.47611 27.7421 9.39358 27.7421 12.3896C27.7421 15.3857 29.2058 17.3032 31.7447 17.3032C34.1045 17.3032 35.8967 15.6254 35.8967 12.7492Z" fill="white"/>
</svg>
