<svg width="167" height="35" viewBox="0 0 167 35" fill="none" xmlns="http://www.w3.org/2000/svg">
<path fill-rule="evenodd" clip-rule="evenodd" d="M0 7H6.01795V25.0012H0V7ZM8.02734 7H14.0035V31H8.02734V7Z" fill="#101820"/>
<path d="M77.1562 19.3896C77.1562 17.3224 77.7835 15.6446 79.0082 14.3862C80.2628 13.0979 81.8758 12.4688 83.8472 12.4688C85.7589 12.4688 87.2226 13.038 88.2382 14.1765C89.2836 15.285 89.8512 16.6333 90.0005 18.1912L87.82 18.341C87.6109 16.064 86.207 14.4761 83.8173 14.4761C81.3978 14.4761 79.6952 16.3936 79.6952 19.3896C79.6952 22.3857 81.3978 24.3032 83.8173 24.3032C86.207 24.3032 87.6109 22.6254 87.82 20.3484L90.0005 20.5581C89.8512 22.146 89.2836 23.4942 88.2382 24.6028C87.2226 25.7113 85.7589 26.2806 83.8472 26.2806C81.8758 26.2806 80.2628 25.6514 79.0082 24.393C77.7835 23.1347 77.1562 21.4569 77.1562 19.3896Z" fill="#101820"/>
<path d="M72.0703 9.86219V7.0459H74.6392V9.86219H72.0703ZM72.1301 12.8283H74.6093V25.921H72.1301V12.8283Z" fill="#101820"/>
<path d="M58.8256 23.1944L58.288 25.9209H56.4061V7.04572H58.8854V15.5845C59.4529 13.9966 61.1555 12.4686 63.575 12.4686C65.4867 12.4686 66.9504 13.1577 67.9958 14.5059C69.0413 15.8541 69.5491 17.472 69.5491 19.3895C69.5491 21.3069 69.0413 22.9248 67.9958 24.273C66.9504 25.6212 65.4867 26.2804 63.5451 26.2804C61.1555 26.2804 59.423 24.8423 58.8256 23.1944ZM58.8256 19V19.749C58.8256 22.6252 60.6477 24.303 63.0075 24.303C65.5465 24.303 66.9802 22.3855 66.9802 19.3895C66.9802 16.3934 65.5465 14.4759 63.0075 14.4759C60.6477 14.4759 58.8256 16.1537 58.8256 19Z" fill="#101820"/>
<path d="M50.5172 20.3482V12.8281H52.9964V25.9209H50.5172V23.6139C49.8899 25.1719 48.1873 26.2804 46.2457 26.2804C44.5431 26.2804 43.3483 25.7711 42.6314 24.7824C41.9444 23.7637 41.5859 22.5054 41.5859 20.9774V12.8281H44.0652V20.7377C44.0652 22.8949 45.0509 24.333 47.0821 24.333C49.0237 24.333 50.5172 22.7451 50.5172 20.3482Z" fill="#101820"/>
<path d="M35.8668 30.9542V23.1944C35.2694 24.7823 33.5967 26.2804 31.1772 26.2804C29.2356 26.2804 27.772 25.6212 26.7265 24.273C25.7109 22.9248 25.2031 21.3069 25.2031 19.3895C25.2031 17.472 25.7109 15.8541 26.7265 14.5059C27.772 13.1577 29.2356 12.4686 31.1772 12.4686C33.5967 12.4686 35.2694 13.9966 35.8668 15.5845V12.8281H38.3461V30.9542H35.8668ZM35.8967 19.749V19C35.8967 16.1537 34.1045 14.4759 31.7447 14.4759C29.2058 14.4759 27.7421 16.3934 27.7421 19.3895C27.7421 22.3855 29.2058 24.303 31.7447 24.303C34.1045 24.303 35.8967 22.6252 35.8967 19.749Z" fill="#101820"/>
<path d="M96.312 13H98.99L102.188 24.05L105.932 13H108.532L112.276 24.05L115.474 13H117.996L114.096 26H110.404L107.154 16.12L103.904 26H100.212L96.312 13ZM122.9 26.338C121.566 26.338 120.508 26 119.728 25.324C118.966 24.648 118.584 23.712 118.584 22.516C118.584 21.4413 118.888 20.5833 119.494 19.942C120.118 19.2833 121.132 18.8327 122.536 18.59L125.786 18.044C126.428 17.94 126.887 17.7753 127.164 17.55C127.459 17.3247 127.606 16.9867 127.606 16.536C127.606 15.8947 127.39 15.4093 126.956 15.08C126.54 14.7333 125.804 14.56 124.746 14.56C123.689 14.56 122.892 14.768 122.354 15.184C121.834 15.6 121.54 16.224 121.47 17.056H118.87C118.888 15.652 119.399 14.5513 120.404 13.754C121.41 12.9567 122.822 12.558 124.642 12.558C126.393 12.558 127.719 12.922 128.62 13.65C129.539 14.378 129.998 15.3573 129.998 16.588V23.036C129.998 23.9893 130.042 24.9773 130.128 26H127.762C127.658 24.9773 127.606 23.998 127.606 23.062C127.312 23.998 126.774 24.778 125.994 25.402C125.214 26.026 124.183 26.338 122.9 26.338ZM121.184 22.412C121.184 23.0187 121.384 23.4953 121.782 23.842C122.198 24.1713 122.753 24.336 123.446 24.336C124.764 24.336 125.786 23.9027 126.514 23.036C127.242 22.152 127.606 21.034 127.606 19.682V18.902C127.294 19.1273 126.956 19.3093 126.592 19.448C126.228 19.5693 125.795 19.6907 125.292 19.812L123.498 20.228C122.684 20.4187 122.094 20.6873 121.73 21.034C121.366 21.3633 121.184 21.8227 121.184 22.412ZM132.733 7.8H135.333V26H132.733V7.8ZM138.459 7.8H141.059V26H138.459V7.8ZM149.827 26.416C147.626 26.416 145.979 25.7747 144.887 24.492C143.795 23.2093 143.249 21.5367 143.249 19.474C143.249 18.174 143.492 17.004 143.977 15.964C144.463 14.924 145.199 14.1007 146.187 13.494C147.175 12.8873 148.389 12.584 149.827 12.584C151.162 12.584 152.297 12.8787 153.233 13.468C154.187 14.04 154.897 14.8287 155.365 15.834C155.851 16.8393 156.093 17.9747 156.093 19.24C156.093 19.6733 156.076 20.0027 156.041 20.228H145.797C145.901 21.7707 146.309 22.8713 147.019 23.53C147.73 24.1713 148.692 24.492 149.905 24.492C151.985 24.492 153.242 23.686 153.675 22.074H156.067C155.911 23.218 155.339 24.232 154.351 25.116C153.381 25.9827 151.873 26.416 149.827 26.416ZM153.597 18.33C153.476 15.782 152.228 14.508 149.853 14.508C148.675 14.508 147.747 14.8027 147.071 15.392C146.395 15.964 145.979 16.9433 145.823 18.33H153.597ZM162.869 26C161.829 26 161.023 25.87 160.451 25.61C159.897 25.3327 159.507 24.9253 159.281 24.388C159.056 23.8333 158.943 23.0967 158.943 22.178V15.002H156.473V13.65L159.177 12.714L160.243 10.062H161.543V13H165.703V15.002H161.543V23.92H165.443V26H162.869Z" fill="#1ADEF5"/>
</svg>
